<svg width="32" height="32" viewBox="0 0 32 32" fill="none" xmlns="http://www.w3.org/2000/svg">
<path d="M29.3333 21.5865C29.3333 26.4398 26.44 29.3332 21.5866 29.3332H20C19.2666 29.3332 18.6666 28.7332 18.6666 27.9998V20.3065C18.6666 19.9465 18.96 19.6398 19.32 19.6398L21.6666 19.5998C21.8533 19.5865 22.0133 19.4532 22.0533 19.2665L22.52 16.7198C22.529 16.6621 22.5255 16.6031 22.5095 16.5469C22.4936 16.4907 22.4656 16.4386 22.4276 16.3942C22.3896 16.3499 22.3424 16.3143 22.2893 16.2899C22.2362 16.2656 22.1784 16.253 22.12 16.2532L19.28 16.2932C18.9066 16.2932 18.6133 15.9998 18.6 15.6398L18.5466 12.3732C18.5466 12.1598 18.72 11.9732 18.9466 11.9732L22.1466 11.9198C22.3733 11.9198 22.5466 11.7465 22.5466 11.5198L22.4933 8.31984C22.4933 8.09317 22.32 7.91984 22.0933 7.91984L18.4933 7.97317C17.9678 7.98115 17.449 8.09276 16.9667 8.3016C16.4844 8.51044 16.048 8.8124 15.6826 9.19018C15.3172 9.56797 15.03 10.0141 14.8373 10.5031C14.6447 10.9921 14.5504 11.5143 14.56 12.0398L14.6266 15.7065C14.64 16.0798 14.3466 16.3732 13.9733 16.3865L12.3733 16.4132C12.1466 16.4132 11.9733 16.5865 11.9733 16.8132L12.0133 19.3465C12.0133 19.5732 12.1866 19.7465 12.4133 19.7465L14.0133 19.7198C14.3866 19.7198 14.68 20.0132 14.6933 20.3732L14.8133 27.9732C14.8266 28.7198 14.2266 29.3332 13.48 29.3332H10.4133C5.55996 29.3332 2.66663 26.4398 2.66663 21.5732V10.4132C2.66663 5.55984 5.55996 2.6665 10.4133 2.6665H21.5866C26.44 2.6665 29.3333 5.55984 29.3333 10.4132V21.5865Z" fill="white"/>
</svg>
