<svg width="25" height="24" viewBox="0 0 25 24" fill="none" xmlns="http://www.w3.org/2000/svg">
<path d="M17.6697 3.10205C15.899 3.10205 14.3142 3.98205 13.3262 5.33205C12.8215 4.64086 12.1662 4.07944 11.4123 3.69235C10.6583 3.30525 9.82643 3.10314 8.98271 3.10205C5.97945 3.10205 3.54358 5.60205 3.54358 8.69205C3.54358 9.88205 3.72945 10.9821 4.05227 12.0021C5.59793 17.0021 10.3621 19.9921 12.7197 20.8121C13.0523 20.9321 13.6001 20.9321 13.9327 20.8121C16.2903 19.9921 21.0544 17.0021 22.6001 12.0021C22.9229 10.9821 23.1088 9.88205 23.1088 8.69205C23.1088 5.60205 20.6729 3.10205 17.6697 3.10205Z" fill="white"/>
</svg>
