<svg width="31" height="31" viewBox="0 0 31 31" fill="none" xmlns="http://www.w3.org/2000/svg">
<path d="M21.6104 0.916504H9.38958C4.08125 0.916504 0.916667 4.08109 0.916667 9.38942V21.5957C0.916667 26.9186 4.08125 30.0832 9.38958 30.0832H21.5958C26.9042 30.0832 30.0688 26.9186 30.0688 21.6103V9.38942C30.0833 4.08109 26.9188 0.916504 21.6104 0.916504ZM15.5 21.1582C12.3792 21.1582 9.84167 18.6207 9.84167 15.4998C9.84167 12.379 12.3792 9.8415 15.5 9.8415C18.6208 9.8415 21.1583 12.379 21.1583 15.4998C21.1583 18.6207 18.6208 21.1582 15.5 21.1582ZM24.1333 8.03317C24.0604 8.20817 23.9583 8.36859 23.8271 8.51442C23.6812 8.64567 23.5208 8.74775 23.3458 8.82067C23.0804 8.93332 22.7875 8.96436 22.5044 8.90981C22.2212 8.85527 21.9608 8.71762 21.7563 8.51442C21.625 8.36859 21.5229 8.20817 21.45 8.03317C21.3751 7.8579 21.3354 7.6696 21.3333 7.479C21.3333 7.28942 21.3771 7.09984 21.45 6.92484C21.5229 6.73525 21.625 6.58942 21.7563 6.44359C22.0917 6.10817 22.6021 5.94775 23.0688 6.04984C23.1708 6.06442 23.2583 6.09359 23.3458 6.13734C23.4333 6.1665 23.5208 6.21025 23.6083 6.26859C23.6813 6.31234 23.7542 6.38525 23.8271 6.44359C23.9583 6.58942 24.0604 6.73525 24.1333 6.92484C24.2062 7.09984 24.25 7.28942 24.25 7.479C24.25 7.66859 24.2062 7.85817 24.1333 8.03317Z" fill="white"/>
</svg>
