<svg width="32" height="26" viewBox="0 0 32 26" fill="none" xmlns="http://www.w3.org/2000/svg">
<path d="M23.9999 0H7.99992C3.19992 0 -8.39233e-05 3.2 -8.39233e-05 8V17.6C-8.39233e-05 22.4 3.19992 25.6 7.99992 25.6H23.9999C28.7999 25.6 31.9999 22.4 31.9999 17.6V8C31.9999 3.2 28.7999 0 23.9999 0ZM19.0239 14.448L15.0719 16.816C13.4719 17.776 12.1599 17.04 12.1599 15.168V10.416C12.1599 8.544 13.4719 7.808 15.0719 8.768L19.0239 11.136C20.5439 12.064 20.5439 13.536 19.0239 14.448Z" fill="white"/>
</svg>
